<svg width="102" height="102" viewBox="0 0 102 102" fill="none" xmlns="http://www.w3.org/2000/svg">
<path d="M102 51C102 79.1665 79.1665 102 51 102C22.8335 102 0 79.1665 0 51C0 22.8335 22.8335 0 51 0C79.1665 0 102 22.8335 102 51Z" fill="url(#paint0_linear_2004_198)"/>
<path d="M34.5 74L38 67C29.6 62.6049 27 54 27 49C27 41.6667 31.8 27 51 27C62.9281 27 69.2985 32.9824 72.2929 39.5521C75.5382 46.6721 74.15 55.4015 68.9952 61.2883C59.8318 71.753 43.2972 74.2626 34.5 74Z" fill="white"/>
<path d="M44 49C44 51.2091 42.2091 53 40 53C37.7909 53 36 51.2091 36 49C36 46.7909 37.7909 45 40 45C42.2091 45 44 46.7909 44 49Z" fill="black"/>
<path d="M55 49C55 51.2091 53.2091 53 51 53C48.7909 53 47 51.2091 47 49C47 46.7909 48.7909 45 51 45C53.2091 45 55 46.7909 55 49Z" fill="black"/>
<path d="M65 49C65 51.2091 63.2091 53 61 53C58.7909 53 57 51.2091 57 49C57 46.7909 58.7909 45 61 45C63.2091 45 65 46.7909 65 49Z" fill="black"/>
<defs>
<linearGradient id="paint0_linear_2004_198" x1="17" y1="8.5" x2="87.5" y2="102" gradientUnits="userSpaceOnUse">
<stop offset="1" stop-color="#353436"/>
</linearGradient>
</defs>
</svg>
